<svg id="visual" viewBox="0 0 900 100" width="900" height="100" xmlns="http://www.w3.org/2000/svg" xmlns:xlink="http://www.w3.org/1999/xlink" version="1.1"><rect x="0" y="0" width="900" height="100" fill="#1e1e1e"></rect><path d="M0 70L10.7 68.3C21.3 66.7 42.7 63.3 64.2 63.3C85.7 63.3 107.3 66.7 128.8 66.7C150.3 66.7 171.7 63.3 193 63C214.3 62.7 235.7 65.3 257 64C278.3 62.7 299.7 57.3 321.2 52.7C342.7 48 364.3 44 385.8 45.5C407.3 47 428.7 54 450 55.7C471.3 57.3 492.7 53.7 514.2 49.7C535.7 45.7 557.3 41.3 578.8 39.7C600.3 38 621.7 39 643 42.3C664.3 45.7 685.7 51.3 707 49.3C728.3 47.3 749.7 37.7 771.2 34C792.7 30.3 814.3 32.7 835.8 33.7C857.3 34.7 878.7 34.3 889.3 34.2L900 34L900 0L889.3 0C878.7 0 857.3 0 835.8 0C814.3 0 792.7 0 771.2 0C749.7 0 728.3 0 707 0C685.7 0 664.3 0 643 0C621.7 0 600.3 0 578.8 0C557.3 0 535.7 0 514.2 0C492.7 0 471.3 0 450 0C428.7 0 407.3 0 385.8 0C364.3 0 342.7 0 321.2 0C299.7 0 278.3 0 257 0C235.7 0 214.3 0 193 0C171.7 0 150.3 0 128.8 0C107.3 0 85.7 0 64.2 0C42.7 0 21.3 0 10.7 0L0 0Z" fill="#6600ff"></path><path d="M0 47L10.7 44.8C21.3 42.7 42.7 38.3 64.2 35.8C85.7 33.3 107.3 32.7 128.8 33C150.3 33.3 171.7 34.7 193 35.8C214.3 37 235.7 38 257 35.3C278.3 32.7 299.7 26.3 321.2 24.2C342.7 22 364.3 24 385.8 26.7C407.3 29.3 428.7 32.7 450 35.8C471.3 39 492.7 42 514.2 41.8C535.7 41.7 557.3 38.3 578.8 35C600.3 31.7 621.7 28.3 643 27.7C664.3 27 685.7 29 707 33.8C728.3 38.7 749.7 46.3 771.2 47.5C792.7 48.7 814.3 43.3 835.8 38.8C857.3 34.3 878.7 30.7 889.3 28.8L900 27L900 0L889.3 0C878.7 0 857.3 0 835.8 0C814.3 0 792.7 0 771.2 0C749.7 0 728.3 0 707 0C685.7 0 664.3 0 643 0C621.7 0 600.3 0 578.8 0C557.3 0 535.7 0 514.2 0C492.7 0 471.3 0 450 0C428.7 0 407.3 0 385.8 0C364.3 0 342.7 0 321.2 0C299.7 0 278.3 0 257 0C235.7 0 214.3 0 193 0C171.7 0 150.3 0 128.8 0C107.3 0 85.7 0 64.2 0C42.7 0 21.3 0 10.7 0L0 0Z" fill="#9d08e5"></path><path d="M0 22L10.7 24.3C21.3 26.7 42.7 31.3 64.2 32.2C85.7 33 107.3 30 128.8 27.7C150.3 25.3 171.7 23.7 193 21.5C214.3 19.3 235.7 16.7 257 15C278.3 13.3 299.7 12.7 321.2 15C342.7 17.3 364.3 22.7 385.8 26.5C407.3 30.3 428.7 32.7 450 31.7C471.3 30.7 492.7 26.3 514.2 23.8C535.7 21.3 557.3 20.7 578.8 22.2C600.3 23.7 621.7 27.3 643 26.8C664.3 26.3 685.7 21.7 707 22.3C728.3 23 749.7 29 771.2 31.3C792.7 33.7 814.3 32.3 835.8 30.8C857.3 29.3 878.7 27.7 889.3 26.8L900 26L900 0L889.3 0C878.7 0 857.3 0 835.8 0C814.3 0 792.7 0 771.2 0C749.7 0 728.3 0 707 0C685.7 0 664.3 0 643 0C621.7 0 600.3 0 578.8 0C557.3 0 535.7 0 514.2 0C492.7 0 471.3 0 450 0C428.7 0 407.3 0 385.8 0C364.3 0 342.7 0 321.2 0C299.7 0 278.3 0 257 0C235.7 0 214.3 0 193 0C171.7 0 150.3 0 128.8 0C107.3 0 85.7 0 64.2 0C42.7 0 21.3 0 10.7 0L0 0Z" fill="#b92ace"></path></svg>