<svg id="visual" viewBox="0 0 960 100" width="960" height="100" xmlns="http://www.w3.org/2000/svg" xmlns:xlink="http://www.w3.org/1999/xlink" version="1.1"><rect x="0" y="0" width="960" height="100" fill="#1E1E1E"></rect><path d="M0 21L12.3 26C24.7 31 49.3 41 74 43.7C98.7 46.3 123.3 41.7 148 40.5C172.7 39.3 197.3 41.7 221.8 44.2C246.3 46.7 270.7 49.3 295.2 47.8C319.7 46.3 344.3 40.7 369 38.7C393.7 36.7 418.3 38.3 443 39.7C467.7 41 492.3 42 517 41.2C541.7 40.3 566.3 37.7 591 38.7C615.7 39.7 640.3 44.3 664.8 45.7C689.3 47 713.7 45 738.2 41.3C762.7 37.7 787.3 32.3 812 28.7C836.7 25 861.3 23 886 25.7C910.7 28.3 935.3 35.7 947.7 39.3L960 43L960 101L947.7 101C935.3 101 910.7 101 886 101C861.3 101 836.7 101 812 101C787.3 101 762.7 101 738.2 101C713.7 101 689.3 101 664.8 101C640.3 101 615.7 101 591 101C566.3 101 541.7 101 517 101C492.3 101 467.7 101 443 101C418.3 101 393.7 101 369 101C344.3 101 319.7 101 295.2 101C270.7 101 246.3 101 221.8 101C197.3 101 172.7 101 148 101C123.3 101 98.7 101 74 101C49.3 101 24.7 101 12.3 101L0 101Z" fill="#9a2fbc"></path><path d="M0 47L12.3 48.2C24.7 49.3 49.3 51.7 74 51.8C98.7 52 123.3 50 148 50.7C172.7 51.3 197.3 54.7 221.8 53.8C246.3 53 270.7 48 295.2 49.3C319.7 50.7 344.3 58.3 369 59.3C393.7 60.3 418.3 54.7 443 54.2C467.7 53.7 492.3 58.3 517 58.7C541.7 59 566.3 55 591 55.2C615.7 55.3 640.3 59.7 664.8 62.3C689.3 65 713.7 66 738.2 62.2C762.7 58.3 787.3 49.7 812 46.8C836.7 44 861.3 47 886 48.2C910.7 49.3 935.3 48.7 947.7 48.3L960 48L960 101L947.7 101C935.3 101 910.7 101 886 101C861.3 101 836.7 101 812 101C787.3 101 762.7 101 738.2 101C713.7 101 689.3 101 664.8 101C640.3 101 615.7 101 591 101C566.3 101 541.7 101 517 101C492.3 101 467.7 101 443 101C418.3 101 393.7 101 369 101C344.3 101 319.7 101 295.2 101C270.7 101 246.3 101 221.8 101C197.3 101 172.7 101 148 101C123.3 101 98.7 101 74 101C49.3 101 24.7 101 12.3 101L0 101Z" fill="#dd0094"></path><path d="M0 65L12.3 65.8C24.7 66.7 49.3 68.3 74 70.2C98.7 72 123.3 74 148 72.8C172.7 71.7 197.3 67.3 221.8 66.7C246.3 66 270.7 69 295.2 71.5C319.7 74 344.3 76 369 76.2C393.7 76.3 418.3 74.7 443 72.5C467.7 70.3 492.3 67.7 517 68.2C541.7 68.7 566.3 72.3 591 75.7C615.7 79 640.3 82 664.8 81.8C689.3 81.7 713.7 78.3 738.2 77.7C762.7 77 787.3 79 812 79.5C836.7 80 861.3 79 886 77.3C910.7 75.7 935.3 73.3 947.7 72.2L960 71L960 101L947.7 101C935.3 101 910.7 101 886 101C861.3 101 836.7 101 812 101C787.3 101 762.7 101 738.2 101C713.7 101 689.3 101 664.8 101C640.3 101 615.7 101 591 101C566.3 101 541.7 101 517 101C492.3 101 467.7 101 443 101C418.3 101 393.7 101 369 101C344.3 101 319.7 101 295.2 101C270.7 101 246.3 101 221.8 101C197.3 101 172.7 101 148 101C123.3 101 98.7 101 74 101C49.3 101 24.7 101 12.3 101L0 101Z" fill="#ff1a65"></path></svg>